<svg xmlns="http://www.w3.org/2000/svg" viewBox="0 0 640 360">
  <rect width="640" height="360" fill="#0a0a0a"/>
  <rect x="40" y="40" width="560" height="280" rx="16" fill="none" stroke="rgba(255,255,255,0.15)" stroke-width="2"/>
  <g fill="none" stroke="#22d3ee" stroke-width="2">
    <rect x="70" y="70" width="360" height="40" rx="8" />
    <path d="M70 130 h320 a8 8 0 0 1 8 8 v18 a8 8 0 0 1-8 8 h-280 l-24 16 v-16 h-16 a8 8 0 0 1-8-8 v-18 a8 8 0 0 1 8-8z"/>
    <rect x="70" y="210" width="420" height="18" rx="9" opacity="0.5"/>
    <rect x="70" y="240" width="460" height="18" rx="9" opacity="0.35"/>
  </g>
  <circle cx="560" cy="90" r="20" stroke="#22d3ee" stroke-width="2" fill="none"/>
  <circle cx="560" cy="90" r="6" fill="#22d3ee"/>
  <text x="60" y="310" fill="#9ca3af" font-family="Inter,Arial" font-size="14">Lead Gen Chatbot (Preview)</text>
</svg>
