<svg xmlns="http://www.w3.org/2000/svg" width="1600" height="900" viewBox="0 0 1600 900">
  <defs>
    <linearGradient id="cyd-cyan2" x1="0" y1="0" x2="1" y2="1">
      <stop offset="0%" stop-color="#38bdf8" />
      <stop offset="100%" stop-color="#22d3ee" />
    </linearGradient>
    <filter id="glow2">
      <feGaussianBlur stdDeviation="6" result="b"/>
      <feMerge><feMergeNode in="b"/><feMergeNode in="SourceGraphic"/></feMerge>
    </filter>
  </defs>
  <rect width="1600" height="900" fill="#0b0e12"/>
  <!-- Bot head -->
  <g transform="translate(680,220)" filter="url(#glow2)">
    <rect x="0" y="0" width="240" height="220" rx="32" fill="none" stroke="url(#cyd-cyan2)" stroke-width="3"/>
    <rect x="70" y="160" width="100" height="40" rx="10" fill="#0f172a" stroke="#1f2937"/>
    <circle cx="80" cy="90" r="10" fill="#22d3ee"/>
    <circle cx="160" cy="90" r="10" fill="#22d3ee"/>
  </g>
  <!-- Nodes -->
  <g filter="url(#glow2)">
    <circle cx="400" cy="320" r="10" fill="#67e8f9"/>
    <circle cx="1180" cy="360" r="10" fill="#67e8f9"/>
    <circle cx="520" cy="580" r="10" fill="#67e8f9"/>
    <circle cx="1060" cy="620" r="10" fill="#67e8f9"/>
    <path d="M410 330 C 520 360, 640 300, 740 318" fill="none" stroke="url(#cyd-cyan2)" stroke-width="2"/>
    <path d="M920 318 C 1040 300, 1140 340, 1180 360" fill="none" stroke="url(#cyd-cyan2)" stroke-width="2"/>
    <path d="M760 440 C 690 520, 600 560, 520 580" fill="none" stroke="url(#cyd-cyan2)" stroke-width="2"/>
    <path d="M840 440 C 940 520, 1000 600, 1060 620" fill="none" stroke="url(#cyd-cyan2)" stroke-width="2"/>
  </g>
  <text x="160" y="820" fill="#d1d5db" font-family="Inter, system-ui" font-size="28">Lead gen chatbot</text>
</svg>
